<svg xmlns="http://www.w3.org/2000/svg" xmlns:xlink="http://www.w3.org/1999/xlink" height="34" width="62" viewBox="0 0 62.001 34"><defs><path id="a" d="M0 0h1000v1000H0z"/><clipPath id="b"><use height="100%" width="100%" xlink:href="#a" overflow="visible"/></clipPath></defs><path fill="none" d="M0 0h62.001v34.001H0z"/><path clip-path="url(#b)" d="M448.435 221.25c23.907.41 42.311 12.258 42.474 12.364l127.273 75.835 17.017-10.06-134.921-80.381c-2.422-1.558-23.557-14.628-51.545-15.109-.606-.01-1.203-.015-1.803-.015-30.275 0-54.034 13.249-69.497 38.547-33.123 1.259-58.067 18.898-72.34 51.297-10.618 24.104-11.546 48.065-11.612 50.357-4.185 81.024 28.27 139.201 56.242 173.74 29.804 36.802 60.344 54.924 62.565 56.215l34.036 20.52 16.957-10.038-42.239-25.466c-.296-.172-29.986-17.575-58.259-52.679-37.631-46.721-55.114-101.059-51.966-161.504l.009-.248c.081-3.255 2.524-74.252 57.654-83.842-8.424 21.968-9.274 42.43-9.344 44.789-5.102 83.556 27.414 141.581 55.6 175.549 29.495 35.545 59.924 52.53 63.21 54.306l33.733 20.445 16.938-10.026-41.873-25.378-.436-.248c-.3-.159-30.303-16.327-58.676-50.734-37.79-45.827-55.006-100.667-51.167-162.998l.014-.33c.045-1.812.811-24.668 11.016-46.21 21.57 1.712 37.609 12.033 37.762 12.132l127.501 76.047 17.004-10.053-135.133-80.598c-1.972-1.269-16.489-10.253-37.038-13.742 10.663-13.1 26.701-22.918 50.844-22.484" fill="#0fa" transform="matrix(.05066 0 0 .05066 5.653 -8.328)"/><path clip-path="url(#b)" d="M651.271 482.176c-30.292-37.404-61.344-55.511-62.562-56.211l-48.342-28.61-16.954 10.129 56.549 33.467c1.178.678 117.749 69.515 110.215 214.178l-.011.26c-.004.22-.593 22.207-10.145 43.891-10.077 22.873-26.055 36.234-47.506 39.934 8.426-21.973 9.273-42.439 9.344-44.785 5.102-83.557-27.415-141.579-55.602-175.547-29.606-35.68-60.154-52.66-63.246-54.325l-47.694-28.336-16.94 10.121 55.939 33.233.381.213c.295.156 29.822 15.968 58.207 50.175 38.111 45.928 55.48 100.954 51.625 163.551l-.014.342c-.005.22-.596 22.207-10.147 43.891-.348.788-.726 1.524-1.087 2.29-21.46-1.767-37.392-12.015-37.544-12.114l-103.121-60.852-16.965 10.137 110.733 65.333c2.042 1.311 16.496 10.229 36.938 13.715-12.314 15.303-29.292 22.861-50.765 22.498-23.906-.41-42.309-12.258-42.474-12.364l-102.549-60.434-16.972 10.141 110.172 64.912c2.517 1.615 23.613 14.616 51.526 15.095.605.01 1.203.015 1.805.015 30.274-.001 54.031-13.248 69.495-38.544 33.125-1.261 58.066-18.898 72.34-51.298 10.613-24.095 11.545-48.045 11.611-50.354 4.186-81.028-28.269-139.207-56.24-173.747" fill="#f7aa9f" transform="matrix(.05066 0 0 .05066 5.653 -8.328)"/><path clip-path="url(#b)" d="M357.96 527.524l-.415 92.354 17.386-10.279.3-64.337a275.827 275.827 0 0 1-17.271-17.738M292.897 658.098l17.361-10.264.229-197.063c-9.687-24.563-16.521-53.39-17.282-86.425l-.308 293.752z" fill="#fff" transform="matrix(.05066 0 0 .05066 5.653 -8.328)"/></svg>