<svg xmlns="http://www.w3.org/2000/svg" height="120" viewBox="0 0 252 119.998" width="252"><path fill="none" d="M0-.001h252v120H0z"/><g fill="#fff"><path d="M73.167 31.99c0-.316.254-.602.603-.602h12.492c.349 0 .603.286.603.602v.92a.603.603 0 0 1-.603.603H75.609V42.2h9.1c.316 0 .602.285.602.602v.92a.625.625 0 0 1-.603.603H75.61v8.655a.625.625 0 0 1-.603.603H73.77a.602.602 0 0 1-.603-.603zm0 0M91.84 31.99c0-.316.287-.602.604-.602h1.268c.317 0 .603.286.603.602v20.99a.625.625 0 0 1-.603.603h-1.268a.625.625 0 0 1-.603-.603zm0 0M99.514 31.99c0-.316.253-.602.603-.602h12.491c.349 0 .603.286.603.602v.92a.603.603 0 0 1-.603.603h-10.653v7.735h9.1c.317 0 .602.286.602.603v.92a.602.602 0 0 1-.602.602h-9.1v8.085h10.653c.349 0 .603.286.603.602v.92a.603.603 0 0 1-.603.603h-12.491a.602.602 0 0 1-.603-.603zm0 0M118.917 31.99c0-.316.254-.602.603-.602h1.236c.318 0 .603.286.603.602v19.468h9.131c.349 0 .603.286.603.602v.92a.603.603 0 0 1-.603.603h-10.97a.603.603 0 0 1-.603-.603zm0 0M142.284 51.394c5.2 0 8.973-3.708 8.973-8.94 0-5.2-3.773-8.91-8.973-8.91h-4.756v17.85zm-7.166-19.404c0-.316.254-.602.572-.602h7.101c6.12 0 11.13 4.978 11.13 11.066 0 6.151-5.01 11.129-11.13 11.129h-7.101c-.318 0-.572-.286-.572-.602zm0 0M167.997 31.07c3.203 0 5.517 1.11 7.673 2.95.253.254.286.634.032.887l-.856.857c-.254.317-.508.285-.825-.033-1.648-1.426-3.9-2.377-6.056-2.377-5.01 0-8.846 4.217-8.846 9.131 0 4.883 3.836 9.1 8.846 9.1 2.759 0 4.376-1.11 6.056-2.378.317-.253.571-.222.76-.095l.953.856c.253.19.19.634-.032.856-2.157 2.093-4.883 3.076-7.705 3.076-6.341 0-11.446-5.042-11.446-11.383a11.421 11.421 0 0 1 11.446-11.446M188.604 42.802c2.442 0 4.567-2.029 4.567-4.629 0-2.41-2.125-4.47-4.567-4.47h-6.15v9.1zM179.95 31.99c0-.316.254-.602.602-.602h8.212c3.805 0 6.912 2.98 6.912 6.754 0 2.917-1.934 5.358-4.693 6.467l4.344 8.054c.222.412 0 .92-.539.92h-1.616c-.285 0-.444-.16-.507-.286l-4.218-8.402h-6.055v8.085a.625.625 0 0 1-.603.603h-1.237a.602.602 0 0 1-.602-.603zm0 0M212.289 46.037c-1.554-3.457-3.075-6.945-4.63-10.4h-.254l-4.629 10.4zm-15.061 6.722l9.64-21.34c.093-.189.253-.348.537-.348h.318c.285 0 .444.159.539.349l9.575 21.339c.19.411-.064.824-.539.824h-1.268a.584.584 0 0 1-.54-.349l-2.346-5.232h-11.256l-2.314 5.232a.584.584 0 0 1-.539.349h-1.268c-.475 0-.729-.413-.539-.824M220.024 31.99c0-.316.253-.602.603-.602h12.491c.349 0 .603.286.603.602v.92a.603.603 0 0 1-.603.603h-10.653V42.2h9.1c.317 0 .602.285.602.602v.92a.624.624 0 0 1-.602.603h-9.1v8.655a.624.624 0 0 1-.602.603h-1.236a.602.602 0 0 1-.603-.603zm0 0M242.47 33.513h-5.516a.602.602 0 0 1-.602-.603v-.92c0-.316.253-.602.602-.602h13.443c.35 0 .603.286.603.602v.92a.602.602 0 0 1-.603.603h-5.516V52.98a.625.625 0 0 1-.603.603h-1.204a.624.624 0 0 1-.603-.603zm0 0"/><g><path d="M71.74 81.958c.16-.19.317-.411.477-.602.316-.412.665-.666 1.108-.286.222.19 2.537 2.41 5.36 2.41 2.568 0 4.248-1.617 4.248-3.487 0-2.188-1.902-3.488-5.548-5.01-3.488-1.522-5.581-2.949-5.581-6.563 0-2.156 1.712-5.644 6.754-5.644 3.106 0 5.421 1.618 5.421 1.618.19.094.57.475.19 1.077-.126.19-.253.413-.38.602-.285.444-.602.57-1.11.286-.221-.127-2.219-1.458-4.153-1.458-3.36 0-4.376 2.155-4.376 3.487 0 2.125 1.617 3.361 4.28 4.47 4.281 1.745 7.04 3.361 7.04 7.04 0 3.297-3.139 5.707-6.849 5.707-3.742 0-6.278-2.188-6.69-2.568-.254-.222-.57-.477-.19-1.079M93.205 65.218h-5.517a.602.602 0 0 1-.602-.603v-.92c0-.316.253-.602.602-.602h13.443c.349 0 .602.286.602.602v.92a.602.602 0 0 1-.602.603h-5.517v19.467a.624.624 0 0 1-.602.603h-1.205a.624.624 0 0 1-.602-.603zm0 0M104.302 63.695c0-.316.285-.602.602-.602h1.205c.349 0 .602.286.602.602v13.223c0 3.614 2.251 6.435 5.961 6.435 3.741 0 6.024-2.758 6.024-6.373V63.695c0-.316.254-.602.603-.602h1.204c.317 0 .603.286.603.602v13.412c0 4.82-3.425 8.498-8.434 8.498-4.978 0-8.37-3.678-8.37-8.498zm0 0M132.55 83.1c5.2 0 8.974-3.71 8.974-8.941 0-5.2-3.774-8.91-8.973-8.91h-4.756V83.1zm-7.165-19.405c0-.316.254-.602.57-.602h7.102c6.12 0 11.13 4.978 11.13 11.066 0 6.151-5.01 11.129-11.13 11.129h-7.102c-.316 0-.57-.286-.57-.603zm0 0M147.8 63.695c0-.316.286-.602.603-.602h1.268c.317 0 .602.286.602.602v20.99a.624.624 0 0 1-.602.603h-1.268a.625.625 0 0 1-.603-.603zm0 0M165.872 83.385c5.042 0 9.196-4.122 9.196-9.163s-4.154-9.226-9.196-9.226c-5.041 0-9.162 4.185-9.162 9.226 0 5.041 4.12 9.163 9.162 9.163m0-20.609c6.342 0 11.415 5.105 11.415 11.446 0 6.342-5.073 11.383-11.415 11.383-6.34 0-11.382-5.041-11.382-11.383 0-6.341 5.041-11.446 11.382-11.446M180.71 81.958c.159-.19.318-.411.476-.602.317-.412.666-.666 1.11-.286.222.19 2.536 2.41 5.359 2.41 2.567 0 4.248-1.617 4.248-3.487 0-2.188-1.903-3.488-5.549-5.01-3.488-1.522-5.58-2.949-5.58-6.563 0-2.156 1.711-5.644 6.753-5.644 3.107 0 5.422 1.618 5.422 1.618.19.094.57.475.19 1.077-.127.19-.253.413-.38.602-.286.444-.603.57-1.11.286-.222-.127-2.22-1.458-4.154-1.458-3.36 0-4.375 2.155-4.375 3.487 0 2.125 1.617 3.361 4.28 4.47 4.28 1.745 7.04 3.361 7.04 7.04 0 3.297-3.14 5.707-6.85 5.707-3.74 0-6.277-2.188-6.69-2.568-.253-.222-.57-.477-.19-1.079"/></g></g><path d="M20.64 24.801c3.019.053 5.342 1.548 5.363 1.562l16.07 9.575 2.15-1.27-17.038-10.15c-.305-.196-2.974-1.847-6.507-1.907-.078-.002-.153-.002-.228-.002-3.823 0-6.823 1.673-8.775 4.867-4.183.16-7.333 2.386-9.135 6.477-1.34 3.044-1.458 6.07-1.466 6.359-.528 10.23 3.57 17.577 7.102 21.937 3.763 4.647 7.62 6.936 7.9 7.099l4.297 2.59 2.141-1.267-5.333-3.215c-.038-.022-3.787-2.22-7.356-6.652-4.752-5.9-6.96-12.76-6.562-20.393l.002-.031c.009-.411.318-9.376 7.279-10.587-1.063 2.775-1.17 5.358-1.18 5.655C8.72 46 12.826 53.325 16.384 57.614c3.725 4.489 7.567 6.634 7.982 6.858l4.26 2.582 2.138-1.267-5.287-3.204-.055-.03c-.038-.02-3.827-2.062-7.41-6.408-4.771-5.785-6.945-12.71-6.46-20.58l.002-.042c.006-.229.103-3.115 1.39-5.834 2.724.215 4.75 1.518 4.769 1.53l16.1 9.603 2.147-1.27-17.064-10.176c-.249-.16-2.081-1.295-4.677-1.736 1.347-1.654 3.372-2.893 6.42-2.839" fill="#0fa"/><path d="M46.251 57.748c-3.825-4.723-7.746-7.009-7.9-7.098l-6.103-3.612-2.14 1.28 7.14 4.224c.148.086 14.867 8.778 13.915 27.044v.033c-.002.028-.076 2.804-1.282 5.542-1.272 2.889-3.29 4.576-5.998 5.043 1.064-2.775 1.17-5.36 1.18-5.655.644-10.551-3.462-17.877-7.021-22.166-3.738-4.506-7.596-6.65-7.986-6.86l-6.022-3.578-2.139 1.279 7.063 4.195.049.028c.037.019 3.765 2.016 7.349 6.335 4.812 5.799 7.006 12.747 6.519 20.651l-.002.043c-.001.028-.075 2.804-1.281 5.542-.044.1-.092.192-.138.29-2.71-.223-4.72-1.518-4.74-1.53l-13.021-7.684-2.142 1.28 13.982 8.249c.258.166 2.082 1.292 4.664 1.732-1.555 1.932-3.7 2.886-6.41 2.84-3.019-.05-5.342-1.546-5.363-1.56l-12.949-7.63-2.143 1.28 13.911 8.196c.319.203 2.982 1.845 6.506 1.906l.228.002c3.823 0 6.823-1.673 8.775-4.867 4.183-.16 7.332-2.387 9.134-6.478 1.34-3.042 1.458-6.066 1.467-6.358.528-10.23-3.57-17.577-7.102-21.938" fill="#f7aa9f"/><g fill="#fff"><path d="M9.216 63.474l-.052 11.661 2.194-1.297.039-8.124a34.811 34.811 0 0 1-2.181-2.24M1 79.961l2.192-1.296.03-24.882C1.998 50.68 1.135 47.042 1.039 42.87zm0 0"/></g></svg>